<svg width="24" height="25" viewBox="0 0 24 25" fill="none" xmlns="http://www.w3.org/2000/svg">
<path fill-rule="evenodd" clip-rule="evenodd" d="M7 4C6.44772 4 6 4.44772 6 5V19C6 19.5523 6.44772 20 7 20H17C17.5523 20 18 19.5523 18 19L18 9.41421L12.5858 4H7ZM4 5C4 3.34315 5.34315 2 7 2H12.5858C13.1162 2 13.6249 2.21071 14 2.58579L19.4142 8C19.7893 8.37507 20 8.88378 20 9.41421V19C20 20.6569 18.6569 22 17 22H7C5.34315 22 4 20.6569 4 19V5Z" fill="#FC4C01"/>
<path d="M13.4004 3.5V8.59961H18.5V10.4004H13C12.2268 10.4004 11.5996 9.7732 11.5996 9V3.5H13.4004Z" fill="#FC4C01"/>
<path d="M12.5626 11.9999C12.8215 11.741 13.2412 11.741 13.5001 11.9999C13.759 12.2588 13.759 12.6785 13.5001 12.9374L9.43753 17C9.17864 17.2589 8.7589 17.2589 8.50001 17C8.24112 16.7411 8.24112 16.3214 8.50001 16.0625L12.5626 11.9999Z" fill="#FC4C01"/>
<path d="M13.5001 16.0626C13.759 16.3215 13.759 16.7412 13.5001 17.0001C13.2412 17.259 12.8215 17.259 12.5626 17.0001L8.49999 12.9375C8.2411 12.6786 8.2411 12.2589 8.49999 12C8.75888 11.7411 9.17862 11.7411 9.43751 12L13.5001 16.0626Z" fill="#FC4C01"/>
<circle cx="18.5" cy="20" r="3.75" fill="white"/>
<path fill-rule="evenodd" clip-rule="evenodd" d="M18.5002 16.6666C16.6592 16.6666 15.1668 18.159 15.1668 19.9999C15.1668 21.8409 16.6592 23.3333 18.5002 23.3333C20.3411 23.3333 21.8335 21.8409 21.8335 19.9999C21.8335 18.159 20.3411 16.6666 18.5002 16.6666ZM14.3335 19.9999C14.3335 17.6987 16.199 15.8333 18.5002 15.8333C20.8013 15.8333 22.6668 17.6987 22.6668 19.9999C22.6668 22.3011 20.8013 24.1666 18.5002 24.1666C16.199 24.1666 14.3335 22.3011 14.3335 19.9999ZM18.5002 17.9166C18.7303 17.9166 18.9168 18.1031 18.9168 18.3333L18.9168 20.6607L19.4555 20.122C19.6183 19.9592 19.8821 19.9592 20.0448 20.122C20.2075 20.2847 20.2075 20.5485 20.0448 20.7112L18.7948 21.9612C18.6321 22.1239 18.3683 22.1239 18.2055 21.9612L16.9555 20.7112C16.7928 20.5485 16.7928 20.2847 16.9555 20.122C17.1183 19.9592 17.3821 19.9592 17.5448 20.122L18.0835 20.6607L18.0835 18.3333C18.0835 18.1031 18.27 17.9166 18.5002 17.9166Z" fill="#FC4C01"/>
</svg>
