<svg width="24" height="25" viewBox="0 0 24 25" fill="none" xmlns="http://www.w3.org/2000/svg">
<path fill-rule="evenodd" clip-rule="evenodd" d="M7 4C6.44772 4 6 4.44772 6 5V19C6 19.5523 6.44772 20 7 20H17C17.5523 20 18 19.5523 18 19L18 9.41421L12.5858 4H7ZM4 5C4 3.34315 5.34315 2 7 2H12.5858C13.1162 2 13.6249 2.21071 14 2.58579L19.4142 8C19.7893 8.37507 20 8.88378 20 9.41421V19C20 20.6569 18.6569 22 17 22H7C5.34315 22 4 20.6569 4 19V5Z" fill="currentColor"/>
<path d="M13.4004 3.5V8.59961H18.5V10.4004H13C12.2268 10.4004 11.5996 9.7732 11.5996 9V3.5H13.4004Z" fill="currentColor"/>
<path d="M11.8727 11.5C12.2388 11.5 12.5356 11.7968 12.5356 12.1629C12.5356 12.5291 12.2388 12.8259 11.8727 12.8259H8.12728C7.76116 12.8259 7.46436 12.5291 7.46436 12.1629C7.46436 11.7968 7.76116 11.5 8.12728 11.5H11.8727Z" fill="currentColor"/>
<path d="M11.8727 14.0002C12.2388 14.0002 12.5356 14.297 12.5356 14.6632C12.5356 15.0293 12.2388 15.3261 11.8727 15.3261H8.12728C7.76116 15.3261 7.46436 15.0293 7.46436 14.6632C7.46436 14.297 7.76116 14.0002 8.12728 14.0002H11.8727Z" fill="currentColor"/>
<path d="M13.8727 16.5002C14.2388 16.5002 14.5356 16.797 14.5356 17.1632C14.5356 17.5293 14.2388 17.8261 13.8727 17.8261H8.12728C7.76116 17.8261 7.46436 17.5293 7.46436 17.1632C7.46436 16.797 7.76116 16.5002 8.12728 16.5002H13.8727Z" fill="currentColor"/>
<g clip-path="url(#clip0_475_2119)">
<circle cx="19" cy="20" r="3.75" fill="white"/>
<path fill-rule="evenodd" clip-rule="evenodd" d="M19.0002 16.6666C17.1592 16.6666 15.6668 18.159 15.6668 19.9999C15.6668 21.8409 17.1592 23.3333 19.0002 23.3333C20.8411 23.3333 22.3335 21.8409 22.3335 19.9999C22.3335 18.159 20.8411 16.6666 19.0002 16.6666ZM14.8335 19.9999C14.8335 17.6987 16.699 15.8333 19.0002 15.8333C21.3013 15.8333 23.1668 17.6987 23.1668 19.9999C23.1668 22.3011 21.3013 24.1666 19.0002 24.1666C16.699 24.1666 14.8335 22.3011 14.8335 19.9999ZM19.0002 17.9166C19.2303 17.9166 19.4168 18.1031 19.4168 18.3333L19.4168 20.6607L19.9555 20.122C20.1183 19.9592 20.3821 19.9592 20.5448 20.122C20.7075 20.2847 20.7075 20.5485 20.5448 20.7112L19.2948 21.9612C19.1321 22.1239 18.8683 22.1239 18.7055 21.9612L17.4555 20.7112C17.2928 20.5485 17.2928 20.2847 17.4555 20.122C17.6183 19.9592 17.8821 19.9592 18.0448 20.122L18.5835 20.6607L18.5835 18.3333C18.5835 18.1031 18.77 17.9166 19.0002 17.9166Z" fill="currentColor"/>
</g>
<defs>
<clipPath id="clip0_475_2119">
<rect width="10" height="10" fill="white" transform="translate(14 15)"/>
</clipPath>
</defs>
</svg>
