<svg width="36" height="36" viewBox="0 0 36 36" fill="none" xmlns="http://www.w3.org/2000/svg">
<path d="M28.0848 5.91682H24.0213V4.4426C24.0213 3.81512 23.5147 3.30859 22.8873 3.30859C22.2598 3.30859 21.7533 3.81512 21.7533 4.4426V5.91682H14.0306V4.4426C14.0306 3.81512 13.5241 3.30859 12.8966 3.30859C12.2691 3.30859 11.7626 3.81512 11.7626 4.4426V5.91682H7.91455C6.92796 5.91682 6.13037 6.71819 6.13037 7.70099V30.9066C6.13037 31.8932 6.93174 32.6908 7.91455 32.6908H28.0848C29.0714 32.6908 29.869 31.8894 29.869 30.9066V7.70477C29.8728 6.71818 29.0714 5.91682 28.0848 5.91682ZM27.601 30.4266H8.39461V8.18862H11.7588V10.3206C11.7588 10.948 12.2654 11.4546 12.8929 11.4546C13.5203 11.4546 14.0269 10.948 14.0269 10.3206V8.18862H21.7457V10.3206C21.7457 10.948 22.2522 11.4546 22.8797 11.4546C23.5072 11.4546 24.0137 10.948 24.0137 10.3206V8.18862H27.5972L27.601 30.4266Z" fill="#4A4D5F"/>
<path d="M15.6146 14.9241C14.9871 14.9241 14.4806 15.4306 14.4806 16.0581C14.4806 16.6856 14.9871 17.1921 15.6146 17.1921H24.974C25.6015 17.1921 26.108 16.6856 26.108 16.0581C26.108 15.4306 25.6015 14.9241 24.974 14.9241H15.6146ZM12.3222 14.9241H10.8442C10.2167 14.9241 9.7102 15.4306 9.7102 16.0581C9.7102 16.6856 10.2167 17.1921 10.8442 17.1921H12.3222C12.9497 17.1921 13.4562 16.6856 13.4562 16.0581C13.4562 15.4344 12.9459 14.9241 12.3222 14.9241ZM24.974 20.1784H15.6146C14.9871 20.1784 14.4806 20.6849 14.4806 21.3124C14.4806 21.9399 14.9871 22.4464 15.6146 22.4464H24.974C25.6015 22.4464 26.108 21.9399 26.108 21.3124C26.108 20.6887 25.5977 20.1784 24.974 20.1784ZM12.3222 20.1784H10.8442C10.2167 20.1784 9.7102 20.6849 9.7102 21.3124C9.7102 21.9399 10.2167 22.4464 10.8442 22.4464H12.3222C12.9497 22.4464 13.4562 21.9399 13.4562 21.3124C13.4562 20.6887 12.9459 20.1784 12.3222 20.1784ZM12.3222 25.4326H10.8442C10.2167 25.4326 9.7102 25.9391 9.7102 26.5666C9.7102 27.1941 10.2167 27.7006 10.8442 27.7006H12.3222C12.9497 27.7006 13.4562 27.1941 13.4562 26.5666C13.4562 25.9429 12.9459 25.4326 12.3222 25.4326Z" fill="#4A4D5F"/>
<path d="M24.9424 25.6186C25.484 25.6186 25.9234 26.058 25.9234 26.5997C25.9234 27.1414 25.484 27.5808 24.9424 27.5808H15.5436C15.002 27.5808 14.5626 27.1414 14.5626 26.5997C14.5626 26.058 15.002 25.6186 15.5436 25.6186H24.9424Z" fill="#FB4311"/>
<path d="M28.0848 5.91682H24.0213V4.4426C24.0213 3.81512 23.5147 3.30859 22.8873 3.30859C22.2598 3.30859 21.7533 3.81512 21.7533 4.4426V5.91682H14.0306V4.4426C14.0306 3.81512 13.5241 3.30859 12.8966 3.30859C12.2691 3.30859 11.7626 3.81512 11.7626 4.4426V5.91682H7.91455C6.92796 5.91682 6.13037 6.71819 6.13037 7.70099V30.9066C6.13037 31.8932 6.93174 32.6908 7.91455 32.6908H28.0848C29.0714 32.6908 29.869 31.8894 29.869 30.9066V7.70477C29.8728 6.71818 29.0714 5.91682 28.0848 5.91682ZM27.601 30.4266H8.39461V8.18862H11.7588V10.3206C11.7588 10.948 12.2654 11.4546 12.8929 11.4546C13.5203 11.4546 14.0269 10.948 14.0269 10.3206V8.18862H21.7457V10.3206C21.7457 10.948 22.2522 11.4546 22.8797 11.4546C23.5072 11.4546 24.0137 10.948 24.0137 10.3206V8.18862H27.5972L27.601 30.4266Z" stroke="white" stroke-width="0.3" stroke-linecap="round"/>
<path d="M15.6146 14.9241C14.9871 14.9241 14.4806 15.4306 14.4806 16.0581C14.4806 16.6856 14.9871 17.1921 15.6146 17.1921H24.974C25.6015 17.1921 26.108 16.6856 26.108 16.0581C26.108 15.4306 25.6015 14.9241 24.974 14.9241H15.6146ZM12.3222 14.9241H10.8442C10.2167 14.9241 9.7102 15.4306 9.7102 16.0581C9.7102 16.6856 10.2167 17.1921 10.8442 17.1921H12.3222C12.9497 17.1921 13.4562 16.6856 13.4562 16.0581C13.4562 15.4344 12.9459 14.9241 12.3222 14.9241ZM24.974 20.1784H15.6146C14.9871 20.1784 14.4806 20.6849 14.4806 21.3124C14.4806 21.9399 14.9871 22.4464 15.6146 22.4464H24.974C25.6015 22.4464 26.108 21.9399 26.108 21.3124C26.108 20.6887 25.5977 20.1784 24.974 20.1784ZM12.3222 20.1784H10.8442C10.2167 20.1784 9.7102 20.6849 9.7102 21.3124C9.7102 21.9399 10.2167 22.4464 10.8442 22.4464H12.3222C12.9497 22.4464 13.4562 21.9399 13.4562 21.3124C13.4562 20.6887 12.9459 20.1784 12.3222 20.1784ZM12.3222 25.4326H10.8442C10.2167 25.4326 9.7102 25.9391 9.7102 26.5666C9.7102 27.1941 10.2167 27.7006 10.8442 27.7006H12.3222C12.9497 27.7006 13.4562 27.1941 13.4562 26.5666C13.4562 25.9429 12.9459 25.4326 12.3222 25.4326Z" stroke="white" stroke-width="0.3" stroke-linecap="round"/>
<path d="M24.9424 25.6186C25.484 25.6186 25.9234 26.058 25.9234 26.5997C25.9234 27.1414 25.484 27.5808 24.9424 27.5808H15.5436C15.002 27.5808 14.5626 27.1414 14.5626 26.5997C14.5626 26.058 15.002 25.6186 15.5436 25.6186H24.9424Z" stroke="white" stroke-width="0.3" stroke-linecap="round"/>
</svg>
