<svg width="34" height="40" viewBox="0 0 34 40" fill="none" xmlns="http://www.w3.org/2000/svg">
<g opacity="0.3">
<path opacity="0.3" d="M23.2784 8.20668C22.3671 8.20624 21.4932 7.84402 20.8488 7.19962C20.2044 6.55521 19.8421 5.68133 19.8417 4.77001V0H4.48503C3.89591 -4.06767e-08 3.31257 0.116056 2.76832 0.341553C2.22406 0.56705 1.72952 0.897563 1.31303 1.31421C0.896538 1.73086 0.566238 2.22548 0.340943 2.76982C0.115649 3.31416 -0.000218613 3.89756 3.09648e-07 4.48668V31.5217C-0.000218613 32.1108 0.115649 32.6942 0.340943 33.2386C0.566238 33.7829 0.896538 34.2775 1.31303 34.6942C1.72952 35.1108 2.22406 35.4413 2.76832 35.6668C3.31257 35.8923 3.89591 36.0084 4.48503 36.0084H22.9184C23.5075 36.0084 24.0908 35.8923 24.6351 35.6668C25.1793 35.4413 25.6738 35.1108 26.0903 34.6942C26.5068 34.2775 26.8372 33.7829 27.0625 33.2386C27.2878 32.6942 27.4036 32.1108 27.4034 31.5217V8.20835L23.2784 8.20668Z" fill="#00C650"/>
</g>
<path d="M27.4035 8.20668H23.2785C22.3672 8.20624 21.4933 7.84402 20.8489 7.19962C20.2045 6.55521 19.8422 5.68133 19.8418 4.77001V0L27.4035 8.20668Z" fill="#00C650"/>
<path d="M30.6573 28.4336H9.81731C8.33902 28.4336 7.14062 29.632 7.14062 31.1103V37.3236C7.14062 38.8019 8.33902 40.0003 9.81731 40.0003H30.6573C32.1356 40.0003 33.334 38.8019 33.334 37.3236V31.1103C33.334 29.632 32.1356 28.4336 30.6573 28.4336Z" fill="#00C650"/>
<path d="M14.0362 35.5615V36.7749H12.7812V35.5615H14.0362Z" fill="white"/>
<path d="M17.7627 31.7637V35.187C17.7627 35.7126 17.6199 36.1165 17.3344 36.3987C17.175 36.5457 16.9876 36.659 16.7835 36.7321C16.5793 36.8051 16.3625 36.8362 16.146 36.8237C15.909 36.8364 15.6717 36.802 15.448 36.7225C15.2243 36.643 15.0185 36.5199 14.8427 36.3604C14.5216 36.0504 14.3605 35.6059 14.3594 35.027H15.5577C15.5577 35.4954 15.736 35.7287 16.0894 35.7287C16.3977 35.7287 16.551 35.5487 16.551 35.1904V31.767L17.7627 31.7637Z" fill="white"/>
<path d="M19.7722 35.017V36.7754H18.5605V31.7637H20.5239C21.1183 31.7637 21.5717 31.9109 21.8839 32.2053C22.0419 32.3602 22.1653 32.5467 22.246 32.7527C22.3267 32.9587 22.363 33.1794 22.3522 33.4004C22.3568 33.6916 22.2849 33.9789 22.1439 34.2337C21.9988 34.4821 21.7829 34.6817 21.5239 34.807C21.2119 34.9551 20.8691 35.0271 20.5239 35.017H19.7722ZM21.1189 33.4004C21.1189 32.9559 20.8755 32.7337 20.3889 32.7337H19.7722V34.0387H20.3889C20.8755 34.0431 21.1189 33.8304 21.1189 33.4004Z" fill="white"/>
<path d="M26.8461 32.1672C27.2496 32.4706 27.5211 32.9175 27.6044 33.4155H26.3211C26.2342 33.2411 26.0973 33.0966 25.9277 33.0005C25.7369 32.8871 25.518 32.8294 25.2961 32.8338C25.1237 32.8268 24.952 32.8578 24.793 32.9246C24.634 32.9915 24.4916 33.0925 24.3761 33.2205C24.1316 33.5121 24.0071 33.8856 24.0278 34.2655C24.0278 34.7422 24.1494 35.1083 24.3927 35.3639C24.5296 35.4965 24.6926 35.5992 24.8714 35.6652C25.0502 35.7312 25.2409 35.7591 25.4311 35.7472C25.703 35.7521 25.9692 35.6685 26.1894 35.5089C26.4143 35.3409 26.5767 35.1028 26.6511 34.8322H25.1194V33.9605H27.6644V35.1588C27.5672 35.4572 27.4132 35.7339 27.2111 35.9738C26.9921 36.2324 26.7198 36.4405 26.4127 36.5839C26.0656 36.7442 25.6867 36.824 25.3044 36.8172C24.8394 36.8294 24.3794 36.7184 23.9711 36.4955C23.5975 36.2854 23.2934 35.9709 23.0961 35.5905C22.884 35.1786 22.778 34.7204 22.7877 34.2572C22.7794 33.7968 22.8853 33.3416 23.0961 32.9322C23.2931 32.5526 23.5959 32.2383 23.9677 32.0272C24.3701 31.806 24.8237 31.695 25.2827 31.7055C25.8407 31.6812 26.3908 31.8436 26.8461 32.1672Z" fill="white"/>
<path d="M17.3827 24.4019H10.0211C9.3004 24.401 8.60949 24.1143 8.0999 23.6047C7.5903 23.0951 7.30362 22.4042 7.30273 21.6835V14.3219C7.30362 13.6012 7.5903 12.9103 8.0999 12.4007C8.60949 11.8911 9.3004 11.6044 10.0211 11.6035H17.3827C18.1033 11.6044 18.794 11.8911 19.3033 12.4008C19.8127 12.9104 20.099 13.6013 20.0994 14.3219V21.6835C20.099 22.4041 19.8127 23.095 19.3033 23.6046C18.794 24.1143 18.1033 24.401 17.3827 24.4019ZM10.0211 12.8052C9.61897 12.8056 9.23343 12.9656 8.9491 13.2499C8.66476 13.5342 8.50484 13.9198 8.5044 14.3219V21.6835C8.50484 22.0856 8.66476 22.4712 8.9491 22.7555C9.23343 23.0398 9.61897 23.1998 10.0211 23.2002H17.3827C17.7847 23.1997 18.17 23.0398 18.4541 22.7554C18.7382 22.471 18.8978 22.0855 18.8978 21.6835V14.3219C18.8978 13.9199 18.7382 13.5344 18.4541 13.25C18.17 12.9656 17.7847 12.8056 17.3827 12.8052H10.0211Z" fill="#00C650"/>
<path d="M19.4993 20.283V21.683C19.4988 22.2442 19.2757 22.7824 18.8788 23.1792C18.482 23.5761 17.9439 23.7992 17.3826 23.7997H10.021C9.45958 23.7997 8.9212 23.5767 8.52425 23.1797C8.1273 22.7828 7.9043 22.2444 7.9043 21.683V19.333C9.08263 19.0797 10.8776 18.9997 13.056 19.8697L14.406 18.583L15.3259 20.9163C15.3259 20.9163 15.5726 20.058 16.3693 20.1797C17.1659 20.3013 18.456 20.733 19.0076 20.3647C19.1563 20.2789 19.3309 20.2499 19.4993 20.283Z" fill="#00C650"/>
<path d="M16.9218 15.8251C17.3738 15.8251 17.7402 15.4588 17.7402 15.0068C17.7402 14.5549 17.3738 14.1885 16.9218 14.1885C16.4699 14.1885 16.1035 14.5549 16.1035 15.0068C16.1035 15.4588 16.4699 15.8251 16.9218 15.8251Z" fill="#00C650"/>
</svg>
