<svg width="34" height="40" viewBox="0 0 34 40" fill="none" xmlns="http://www.w3.org/2000/svg">
<g opacity="0.3">
<path opacity="0.3" d="M23.2773 8.20798C22.3662 8.2071 21.4926 7.84474 20.8483 7.20045C20.204 6.55617 19.8417 5.68259 19.8408 4.77144V0H4.4848C3.29536 0 2.15464 0.472518 1.31357 1.31358C0.472508 2.15465 0 3.29535 0 4.48479V31.5203C0.00176632 32.7086 0.475049 33.8476 1.31592 34.6872C2.1568 35.5268 3.29651 35.9984 4.4848 35.9984H22.919C24.1073 35.9984 25.247 35.5268 26.0879 34.6872C26.9288 33.8476 27.4021 32.7086 27.4038 31.5203V8.20798H23.2773Z" fill="#FF3E4C"/>
</g>
<path d="M27.4048 8.20798H23.2783C22.3672 8.2071 21.4936 7.84474 20.8493 7.20045C20.205 6.55617 19.8427 5.68259 19.8418 4.77144V0L27.4048 8.20798Z" fill="#FF3E4C"/>
<path d="M21.7664 25.1389H4.56052C4.39477 25.1389 4.2358 25.0731 4.11859 24.9558C4.00139 24.8386 3.93555 24.6797 3.93555 24.5139C3.93599 24.3485 4.00203 24.1899 4.11918 24.0731C4.23634 23.9562 4.39506 23.8906 4.56052 23.8906H21.7664C21.9318 23.8906 22.0903 23.9563 22.2072 24.0732C22.3241 24.19 22.3897 24.3486 22.3897 24.5139C22.39 24.5959 22.374 24.6772 22.3428 24.753C22.3116 24.8288 22.2657 24.8977 22.2078 24.9557C22.1499 25.0138 22.0811 25.0599 22.0054 25.0913C21.9296 25.1227 21.8484 25.1389 21.7664 25.1389Z" fill="#FF3E4C"/>
<path d="M21.7664 18.0989H4.56052C4.39506 18.0989 4.23634 18.0332 4.11918 17.9164C4.00203 17.7995 3.93599 17.641 3.93555 17.4756C3.93555 17.3098 4.00139 17.1508 4.11859 17.0336C4.2358 16.9164 4.39477 16.8506 4.56052 16.8506H21.7664C21.8484 16.8506 21.9296 16.8668 22.0054 16.8982C22.0811 16.9296 22.1499 16.9757 22.2078 17.0337C22.2657 17.0918 22.3116 17.1607 22.3428 17.2365C22.374 17.3123 22.39 17.3936 22.3897 17.4756C22.3897 17.6409 22.3241 17.7994 22.2072 17.9163C22.0903 18.0332 21.9318 18.0989 21.7664 18.0989Z" fill="#FF3E4C"/>
<path d="M21.7664 21.6194H4.56052C4.39477 21.6194 4.2358 21.5535 4.11859 21.4363C4.00139 21.3191 3.93555 21.1602 3.93555 20.9944C3.93599 20.8289 4.00203 20.6704 4.11918 20.5535C4.23634 20.4367 4.39506 20.3711 4.56052 20.3711H21.7664C21.9318 20.3711 22.0903 20.4368 22.2072 20.5537C22.3241 20.6706 22.3897 20.8291 22.3897 20.9944C22.39 21.0764 22.374 21.1576 22.3428 21.2334C22.3116 21.3093 22.2657 21.3782 22.2078 21.4362C22.1499 21.4943 22.0811 21.5403 22.0054 21.5718C21.9296 21.6032 21.8484 21.6194 21.7664 21.6194Z" fill="#FF3E4C"/>
<path d="M14.9801 14.5793H4.56052C4.39506 14.5793 4.23634 14.5137 4.11918 14.3969C4.00203 14.28 3.93599 14.1215 3.93555 13.956C3.93555 13.7903 4.00139 13.6313 4.11859 13.5141C4.2358 13.3969 4.39477 13.3311 4.56052 13.3311H14.9801C15.1455 13.3315 15.3041 13.3975 15.4209 13.5147C15.5378 13.6318 15.6034 13.7906 15.6034 13.956C15.6029 14.1212 15.5371 14.2795 15.4203 14.3963C15.3035 14.5131 15.1453 14.5789 14.9801 14.5793Z" fill="#FF3E4C"/>
<path d="M14.9801 11.0598H4.56052C4.39506 11.0598 4.23634 10.9942 4.11918 10.8773C4.00203 10.7605 3.93599 10.602 3.93555 10.4365C3.93555 10.2707 4.00139 10.1117 4.11859 9.99454C4.2358 9.87733 4.39477 9.81152 4.56052 9.81152H14.9801C15.1455 9.81196 15.3041 9.87799 15.4209 9.99515C15.5378 10.1123 15.6034 10.271 15.6034 10.4365C15.6029 10.6017 15.5371 10.7599 15.4203 10.8767C15.3035 10.9935 15.1453 11.0594 14.9801 11.0598Z" fill="#FF3E4C"/>
<path d="M30.6563 28.4336H9.81718C8.33896 28.4336 7.14062 29.6319 7.14062 31.1101V37.3232C7.14062 38.8014 8.33896 39.9998 9.81718 39.9998H30.6563C32.1345 39.9998 33.3328 38.8014 33.3328 37.3232V31.1101C33.3328 29.6319 32.1345 28.4336 30.6563 28.4336Z" fill="#FF3E4C"/>
<path d="M13.9759 35.5615V36.7731H12.7227V35.5615H13.9759Z" fill="white"/>
<path d="M15.819 35.0149V36.7731H14.6074V31.7617H16.5707C17.1656 31.7617 17.6206 31.91 17.9323 32.205C18.09 32.36 18.2131 32.5466 18.2935 32.7525C18.374 32.9585 18.4099 33.1791 18.3989 33.4C18.405 33.6913 18.3331 33.979 18.1906 34.2333C18.0451 34.4818 17.8294 34.6819 17.5706 34.8083C17.2585 34.9558 16.9158 35.0272 16.5707 35.0166L15.819 35.0149ZM17.1657 33.4C17.1657 32.9555 16.9223 32.7333 16.4357 32.7333H15.819V34.0383H16.4357C16.9223 34.0427 17.1657 33.8299 17.1657 33.4Z" fill="white"/>
<path d="M23.1876 35.5648C22.9789 35.9438 22.6637 36.2532 22.281 36.4548C21.8503 36.6753 21.3714 36.7847 20.8877 36.7731H18.9961V31.7617H20.8877C21.3717 31.7495 21.8513 31.8565 22.2843 32.0733C22.666 32.2706 22.9804 32.5769 23.1876 32.9533C23.4044 33.3529 23.5135 33.802 23.5042 34.2566C23.5133 34.7127 23.4042 35.1633 23.1876 35.5648ZM21.8843 35.3132C22.0198 35.1741 22.1247 35.0083 22.1925 34.8264C22.2602 34.6444 22.2892 34.4504 22.2776 34.2566C22.2893 34.063 22.2603 33.8691 22.1926 33.6875C22.1248 33.5058 22.0198 33.3403 21.8843 33.2016C21.5812 32.9356 21.1852 32.8002 20.7827 32.8249H20.2077V35.6881H20.7827C21.1849 35.7126 21.5806 35.5779 21.8843 35.3132Z" fill="white"/>
<path d="M27.4596 31.7617V32.7267H25.4047V33.8249H26.9913V34.7466H25.4047V36.7731H24.1914V31.7617H27.4596Z" fill="white"/>
<path d="M21.4605 9.81152H18.5139C18.0003 9.81152 17.584 10.2279 17.584 10.7415V13.688C17.584 14.2016 18.0003 14.618 18.5139 14.618H21.4605C21.9741 14.618 22.3904 14.2016 22.3904 13.688V10.7415C22.3904 10.2279 21.9741 9.81152 21.4605 9.81152Z" fill="#FF3E4C"/>
</svg>
