<svg width="34" height="40" viewBox="0 0 34 40" fill="none" xmlns="http://www.w3.org/2000/svg">
<g opacity="0.3">
<path opacity="0.3" d="M23.2774 8.20799C22.3662 8.20711 21.4927 7.84475 20.8484 7.20047C20.2041 6.55618 19.8417 5.6826 19.8409 4.77145V0H4.48484C3.29539 0 2.15465 0.472519 1.31358 1.31358C0.472519 2.15465 0 3.29535 0 4.4848V31.5203C0 32.7098 0.472519 33.8505 1.31358 34.6916C2.15465 35.5327 3.29539 36.0052 4.48484 36.0052H22.9174C24.1068 36.0052 25.2476 35.5327 26.0886 34.6916C26.9297 33.8505 27.4022 32.7098 27.4022 31.5203V8.20799H23.2774Z" fill="#00C650"/>
</g>
<path d="M27.4032 8.20799H23.2783C22.3672 8.20711 21.4936 7.84475 20.8493 7.20047C20.205 6.55618 19.8427 5.6826 19.8418 4.77145V0L27.4032 8.20799Z" fill="#00C650"/>
<path d="M30.6563 28.4338H9.81719C8.33897 28.4338 7.14062 29.6322 7.14062 31.1104V37.3235C7.14062 38.8017 8.33897 40 9.81719 40H30.6563C32.1346 40 33.3329 38.8017 33.3329 37.3235V31.1104C33.3329 29.6322 32.1346 28.4338 30.6563 28.4338Z" fill="#00C650"/>
<path d="M14.5714 35.5619V36.7735H13.3164V35.5619H14.5714Z" fill="white"/>
<path d="M18.2433 36.767L17.1884 35.2071L16.2801 36.767H14.8918L16.4934 34.1872L14.8418 31.7556H16.2801L17.3084 33.2655L18.195 31.7556H19.5766L17.9967 34.2788L19.6833 36.767H18.2433Z" fill="white"/>
<path d="M21.8935 35.8388H23.5168V36.767H20.6836V31.7556H21.8969L21.8935 35.8388Z" fill="white"/>
<path d="M28.0652 36.0936C27.9215 36.3237 27.7151 36.5081 27.4703 36.6252C27.1723 36.7647 26.8459 36.8326 26.517 36.8235C26.0208 36.8443 25.5319 36.6995 25.1271 36.4119C24.948 36.2775 24.8015 36.1045 24.6985 35.9057C24.5955 35.7069 24.5386 35.4874 24.5321 35.2636H25.822C25.8312 35.4324 25.9031 35.5917 26.0237 35.7102C26.1437 35.8221 26.303 35.882 26.467 35.8769C26.5338 35.8808 26.6007 35.8715 26.6639 35.8495C26.7271 35.8274 26.7854 35.7931 26.8353 35.7486C26.8798 35.7054 26.9147 35.6535 26.938 35.5961C26.9612 35.5387 26.9722 35.4771 26.9703 35.4152C26.9719 35.3565 26.9617 35.298 26.9403 35.2433C26.9188 35.1886 26.8865 35.1388 26.8453 35.0969C26.7571 35.0076 26.6524 34.9363 26.537 34.8869C26.4159 34.8336 26.2459 34.7686 26.027 34.6919C25.7614 34.6044 25.5019 34.4992 25.2504 34.377C25.0436 34.2704 24.8662 34.1148 24.7337 33.9236C24.58 33.6923 24.5041 33.4179 24.5171 33.1403C24.511 32.8654 24.5902 32.5952 24.7437 32.367C24.9014 32.144 25.1193 31.9706 25.372 31.867C25.6633 31.7486 25.976 31.6918 26.2903 31.7004C26.7676 31.6741 27.239 31.8149 27.6236 32.0987C27.7873 32.2319 27.9214 32.3977 28.0172 32.5857C28.1131 32.7737 28.1686 32.9796 28.1802 33.1903H26.8686C26.854 33.0428 26.7907 32.9045 26.6886 32.797C26.6365 32.7471 26.5748 32.7083 26.5071 32.6831C26.4395 32.6579 26.3674 32.6467 26.2953 32.6503C26.1704 32.6447 26.0476 32.685 25.9503 32.7637C25.9055 32.8063 25.8705 32.8582 25.8481 32.9158C25.8256 32.9734 25.8161 33.0353 25.8203 33.097C25.8178 33.209 25.8597 33.3175 25.937 33.3986C26.0199 33.4852 26.1198 33.5539 26.2303 33.6003C26.3487 33.652 26.5187 33.7186 26.7403 33.7986C27.0107 33.8867 27.2742 33.9948 27.5286 34.122C27.7364 34.234 27.9155 34.3926 28.0519 34.5853C28.2074 34.8203 28.2844 35.0987 28.2719 35.3802C28.2697 35.6325 28.1982 35.8792 28.0652 36.0936Z" fill="white"/>
<path d="M19.8152 25.139H7.5957C6.53742 25.139 5.67578 24.0857 5.67578 22.789V13.9244C5.67578 12.6295 6.53742 11.5762 7.5957 11.5762H19.8202C20.8768 11.5762 21.7385 12.6295 21.7385 13.9244V22.789C21.7335 24.0857 20.8718 25.139 19.8152 25.139ZM7.5957 12.7761C7.07739 12.7761 6.65743 13.2911 6.65743 13.9244V22.789C6.65743 23.4224 7.07739 23.9373 7.5957 23.9373H19.8202C20.3369 23.9373 20.7568 23.4224 20.7568 22.789V13.9244C20.7568 13.2911 20.3369 12.7761 19.8202 12.7761H7.5957Z" fill="#00C650"/>
<path d="M21.2431 19.8008H6.16211V21.0024H21.2431V19.8008Z" fill="#00C650"/>
<path d="M21.2431 15.681H6.16211V16.8826H21.2431V15.681Z" fill="#00C650"/>
<path d="M17.3793 12.1761H16.1777V24.5373H17.3793V12.1761Z" fill="#00C650"/>
<path d="M11.225 12.1761H10.0234V24.5373H11.225V12.1761Z" fill="#00C650"/>
</svg>
