<svg width="20" height="20" viewBox="0 0 20 20" fill="none" xmlns="http://www.w3.org/2000/svg">
<g clip-path="url(#clip0_3433_10438)">
<mask id="mask0_3433_10438" style="mask-type:alpha" maskUnits="userSpaceOnUse" x="2" y="2" width="20" height="20">
<rect x="2" y="2" width="20" height="20" fill="#D9D9D9"/>
</mask>
<g mask="url(#mask0_3433_10438)">
<path d="M15.3337 8.66667V6.16667H8.66699V8.66667H7.00033V4.5H17.0003V8.66667H15.3337ZM17.0003 12.4167C17.2364 12.4167 17.4344 12.3368 17.5941 12.1771C17.7538 12.0174 17.8337 11.8194 17.8337 11.5833C17.8337 11.3472 17.7538 11.1493 17.5941 10.9896C17.4344 10.8299 17.2364 10.75 17.0003 10.75C16.7642 10.75 16.5663 10.8299 16.4066 10.9896C16.2469 11.1493 16.167 11.3472 16.167 11.5833C16.167 11.8194 16.2469 12.0174 16.4066 12.1771C16.5663 12.3368 16.7642 12.4167 17.0003 12.4167ZM15.3337 17.8333V14.5H8.66699V17.8333H15.3337ZM17.0003 19.5H7.00033V16.1667H3.66699V11.1667C3.66699 10.4583 3.91005 9.86458 4.39616 9.38542C4.88227 8.90625 5.47255 8.66667 6.16699 8.66667H17.8337C18.542 8.66667 19.1357 8.90625 19.6149 9.38542C20.0941 9.86458 20.3337 10.4583 20.3337 11.1667V16.1667H17.0003V19.5ZM18.667 14.5V11.1667C18.667 10.9306 18.5871 10.7326 18.4274 10.5729C18.2677 10.4132 18.0698 10.3333 17.8337 10.3333H6.16699C5.93088 10.3333 5.73296 10.4132 5.57324 10.5729C5.41352 10.7326 5.33366 10.9306 5.33366 11.1667V14.5H7.00033V12.8333H17.0003V14.5H18.667Z" fill="#525252"/>
</g>
</g>
<defs>
<clipPath id="clip0_3433_10438">
<rect width="20" height="20" fill="white"/>
</clipPath>
</defs>
</svg>
