<svg width="50" height="48" viewBox="0 0 50 48" fill="none" xmlns="http://www.w3.org/2000/svg">
<path d="M46.7119 11.3535C47.4613 11.7293 48.0925 12.3101 48.5332 13.0303C48.9738 13.7504 49.2061 14.5813 49.2051 15.4287V24.8066C49.2051 25.0757 49.0998 25.3343 48.9121 25.5244C48.7245 25.7143 48.4701 25.8213 48.2051 25.8213H41.3057C41.0406 25.8213 40.7862 25.7143 40.5986 25.5244C40.4345 25.3581 40.3333 25.1394 40.3105 24.9072L40.3057 24.8066H40.2939C40.232 24.035 39.9139 23.3035 39.3877 22.7344C38.7963 22.095 37.9863 21.7089 37.123 21.6543H37.1221L36.9238 21.6484H12.3076L12.1455 21.6533C11.3392 21.6949 10.5716 22.0264 9.9834 22.5918C9.39527 23.1572 9.02778 23.9161 8.94434 24.7295L8.93164 24.8936L8.92578 25.0947V45.7295C8.92578 45.9985 8.82039 46.2571 8.63281 46.4473C8.44517 46.6374 8.19002 46.7441 7.9248 46.7441H1.02539C0.760306 46.7441 0.50593 46.6373 0.318359 46.4473C0.13071 46.2571 0.0253906 45.9985 0.0253906 45.7295V15.3672C0.0254423 13.6668 0.9586 12.1092 2.44238 11.3311L24.0186 0.0283203L46.7119 11.3535Z" fill="#EBA525" stroke="#EBA525" stroke-width="0.0504808"/>
<path d="M28 42.4468C29.4894 42.4469 30.6973 43.6836 30.6973 45.2114C30.697 46.7388 29.4893 47.9759 28 47.9761C26.5108 47.9761 25.302 46.7389 25.3018 45.2114C25.3018 43.6837 26.5107 42.4468 28 42.4468ZM43.2422 42.4468C44.7317 42.4468 45.9404 43.6836 45.9404 45.2114C45.9402 46.7389 44.7315 47.9761 43.2422 47.9761C41.753 47.976 40.5452 46.7389 40.5449 45.2114C40.5449 43.6838 41.7529 42.4468 43.2422 42.4468ZM22.0117 25.8706H39.4316C40.0196 25.8706 40.5751 26.3622 40.5752 26.9614L40.5811 27.1694C40.6666 28.1983 41.5297 29.0103 42.585 29.0103H44.3311C45.1024 29.0103 45.4334 29.4823 45.918 30.0835C45.9352 30.1049 45.9518 30.1273 45.9658 30.1509L47.1367 32.1304C47.2268 32.2825 47.7446 33.2796 48.2402 34.2837C48.488 34.7855 48.7302 35.2891 48.9102 35.689C49 35.8886 49.0742 36.0621 49.126 36.1968C49.1519 36.2642 49.1719 36.3219 49.1855 36.3677C49.1993 36.4139 49.206 36.4459 49.2061 36.4644V43.5376C49.206 44.1391 48.7274 44.6284 48.1416 44.6284C47.5345 44.6284 47.0354 44.1686 46.793 43.604C46.1916 42.2025 44.8319 41.2183 43.2422 41.2183C42.0276 41.2183 40.9467 41.7933 40.2363 42.6899C39.8556 43.1705 39.4214 43.6555 38.9297 44.02C38.4381 44.3845 37.8903 44.6283 37.2832 44.6284H33.96C33.3526 44.6284 32.8044 44.3847 32.3125 44.02C31.8205 43.6552 31.3859 43.1697 31.0049 42.689C30.2947 41.793 29.2144 41.2193 28 41.2192C26.7854 41.2192 25.7044 41.7937 24.9941 42.6899C24.6132 43.1706 24.1783 43.6553 23.6865 44.02C23.1946 44.3848 22.6466 44.6284 22.0391 44.6284H22.0117C21.4261 44.6284 20.9473 44.1392 20.9473 43.5376V26.9614C20.9473 26.36 21.4261 25.8703 22.0117 25.8706ZM43.9922 31.1929C42.6193 31.1929 41.5068 32.3063 41.5068 33.6792V34.0034C41.5069 35.3763 42.6193 36.4887 43.9922 36.4888H46.3564C46.6527 36.4888 46.8984 36.3704 47.0283 36.186C47.1589 36.0005 47.1692 35.7524 47.0039 35.5034L44.9619 31.9087C44.9261 31.8457 44.7926 31.6681 44.6514 31.5073C44.5806 31.4267 44.5073 31.3489 44.4424 31.2915C44.4101 31.263 44.3792 31.2393 44.3516 31.2222C44.3247 31.2056 44.297 31.1929 44.2725 31.1929H43.9922Z" fill="#EBA525" stroke="#EBA525" stroke-width="0.0485584"/>
<path d="M14.7686 29.5386H18.4609" stroke="#EBA525" stroke-width="1.96923" stroke-linecap="round" stroke-linejoin="round"/>
<path d="M14.7686 33.2307H18.4609" stroke="#EBA525" stroke-width="1.96923" stroke-linecap="round" stroke-linejoin="round"/>
<path d="M14.7689 36.9231H17.2305" stroke="#EBA525" stroke-width="1.96923" stroke-linecap="round" stroke-linejoin="round"/>
</svg>
