<svg width="16" height="16" viewBox="0 0 16 16" fill="none" xmlns="http://www.w3.org/2000/svg">
<path fill-rule="evenodd" clip-rule="evenodd" d="M8.00016 2.66665C5.05464 2.66665 2.66683 5.05446 2.66683 7.99998C2.66683 10.9455 5.05464 13.3333 8.00016 13.3333C10.9457 13.3333 13.3335 10.9455 13.3335 7.99998C13.3335 5.05446 10.9457 2.66665 8.00016 2.66665ZM1.3335 7.99998C1.3335 4.31808 4.31826 1.33331 8.00016 1.33331C11.6821 1.33331 14.6668 4.31808 14.6668 7.99998C14.6668 11.6819 11.6821 14.6666 8.00016 14.6666C4.31826 14.6666 1.3335 11.6819 1.3335 7.99998ZM8.0002 5.33331C7.01905 5.33331 6.31455 5.80413 6.08833 6.28418C5.93137 6.61724 5.53413 6.75999 5.20107 6.60303C4.86801 6.44608 4.72526 6.04884 4.88222 5.71578C5.38814 4.64223 6.65918 3.99998 8.0002 3.99998C8.86688 3.99998 9.67717 4.26261 10.2858 4.7191C10.8947 5.17574 11.3335 5.85748 11.3335 6.66665C11.3335 8.04621 10.1109 9.00545 8.78861 9.25911C8.7402 9.26839 8.70163 9.29237 8.68059 9.31464C8.67108 9.3247 8.66775 9.33158 8.66698 9.33339C8.66693 9.3335 8.66701 9.33331 8.66698 9.33339C8.66679 9.70142 8.36827 9.99998 8.0002 9.99998C7.63201 9.99998 7.33353 9.7015 7.33353 9.33331C7.33353 8.57191 7.93996 8.06426 8.53741 7.94965C9.51938 7.76127 10.0002 7.153 10.0002 6.66665C10.0002 6.37125 9.8421 6.05298 9.48582 5.78577C9.12932 5.5184 8.60628 5.33331 8.0002 5.33331ZM7.3335 11.3333C7.3335 10.9651 7.63197 10.6666 8.00016 10.6666H8.00683C8.37502 10.6666 8.6735 10.9651 8.6735 11.3333C8.6735 11.7015 8.37502 12 8.00683 12H8.00016C7.63197 12 7.3335 11.7015 7.3335 11.3333Z" fill="#7A869A"/>
</svg>
