<svg width="24" height="24" viewBox="0 0 24 24" fill="none" xmlns="http://www.w3.org/2000/svg">
<path d="M12 12.25C12.1989 12.25 12.3897 12.329 12.5303 12.4697C12.671 12.6103 12.75 12.8011 12.75 13C12.75 13.1989 12.671 13.3897 12.5303 13.5303C12.3897 13.671 12.1989 13.75 12 13.75H7.99999C6.87299 13.7505 5.7923 14.1985 4.99538 14.9954C4.19847 15.7923 3.75053 16.873 3.75 18V19C3.75 19.686 4.314 20.25 4.99999 20.25H12C12.1989 20.25 12.3897 20.329 12.5303 20.4697C12.671 20.6103 12.75 20.8011 12.75 21C12.75 21.1989 12.671 21.3897 12.5303 21.5303C12.3897 21.671 12.1989 21.75 12 21.75H4.99999C4.27114 21.7484 3.57259 21.4582 3.05721 20.9428C2.54183 20.4274 2.25159 19.7289 2.25 19V18C2.25053 16.4752 2.85651 15.0129 3.93472 13.9347C5.01294 12.8565 6.47516 12.2505 7.99999 12.25H12ZM20.752 12.292C20.8853 12.2452 21.0291 12.2371 21.1669 12.2685C21.3046 12.2998 21.4307 12.3695 21.5306 12.4694C21.6305 12.5693 21.7002 12.6954 21.7316 12.8331C21.7629 12.9709 21.7548 13.1147 21.708 13.248L18.908 21.248C18.8583 21.3898 18.7672 21.5134 18.6465 21.6027C18.5257 21.6921 18.3809 21.7432 18.2308 21.7494C18.0808 21.7555 17.9323 21.7164 17.8046 21.6372C17.677 21.558 17.5761 21.4422 17.515 21.305L16.031 17.968L12.695 16.485C12.5577 16.4239 12.442 16.323 12.3628 16.1954C12.2835 16.0677 12.2445 15.9193 12.2506 15.7691C12.2567 15.619 12.3078 15.4742 12.3972 15.3535C12.4866 15.2328 12.6102 15.1417 12.752 15.092L20.752 12.292L20.752 12.292ZM15.033 15.882L16.904 16.715L17.025 16.782C17.1389 16.8607 17.2289 16.9694 17.285 17.096L18.116 18.966L19.776 14.223L15.033 15.883V15.882ZM12 2.25C13.1268 2.25106 14.2072 2.69917 15.004 3.49597C15.8008 4.29276 16.2489 5.37315 16.25 6.49999C16.2489 7.62684 15.8008 8.70723 15.004 9.50403C14.2072 10.3008 13.1268 10.7489 12 10.75C11.4418 10.7504 10.8889 10.6407 10.3731 10.4273C9.85731 10.2139 9.38864 9.90082 8.99391 9.50609C8.59919 9.11136 8.28615 8.64268 8.07271 8.12687C7.85927 7.61105 7.74961 7.05822 7.75001 6.49999C7.75107 5.37315 8.19918 4.29276 8.99597 3.49597C9.79277 2.69917 10.8732 2.25106 12 2.25ZM12 3.75C11.271 3.75106 10.5721 4.04113 10.0566 4.55662C9.54114 5.07212 9.25107 5.77097 9.25001 6.49999C9.24961 6.86124 9.32047 7.21902 9.45853 7.55284C9.59659 7.88667 9.79913 8.18998 10.0546 8.44543C10.31 8.70087 10.6133 8.90342 10.9472 9.04148C11.281 9.17954 11.6388 9.2504 12 9.25001C12.729 9.24895 13.4279 8.95887 13.9434 8.44337C14.4589 7.92788 14.7489 7.22901 14.75 6.49999C14.7489 5.77097 14.4589 5.07212 13.9434 4.55662C13.4279 4.04113 12.729 3.75106 12 3.75Z" fill="#4E5969"/>
</svg>
