<svg width="23" height="28" viewBox="0 0 23 28" fill="none" xmlns="http://www.w3.org/2000/svg">
<path d="M3.81818 0H15.2727C16.632 1.34082 21.0745 5.831 22.9091 7.63636V24.1818C22.9091 25.1945 22.5068 26.1656 21.7908 26.8817C21.0747 27.5977 20.1036 28 19.0909 28H3.81818C2.80554 28 1.83437 27.5977 1.11832 26.8817C0.402272 26.1656 0 25.1945 0 24.1818L0 3.81818C0 2.80554 0.402272 1.83437 1.11832 1.11832C1.83437 0.402272 2.80554 0 3.81818 0V0Z" fill="url(#paint0_linear_1444_9010)"/>
<path d="M4.10555 13.5476H4.57901V17.2665C4.57901 17.8418 4.46192 18.2847 4.22773 18.5952C3.95792 18.9363 3.53028 19.1069 2.94482 19.1069C2.45101 19.1069 2.07428 18.972 1.81464 18.7022C1.52955 18.4222 1.38701 18.0174 1.38701 17.488V17.2818H1.85282V17.4803C1.85282 18.2796 2.21937 18.6792 2.95246 18.6792C3.36482 18.6792 3.66264 18.5596 3.84592 18.3203C4.01901 18.0862 4.10555 17.7323 4.10555 17.2589V13.5476ZM5.69284 13.5476H7.90739C9.11902 13.5476 9.72484 14.0694 9.72484 15.1131C9.72484 16.1618 9.11648 16.6862 7.89975 16.6862H6.15866V19H5.69284V13.5476ZM6.15866 13.96V16.2738H7.87684C8.34011 16.2738 8.68884 16.1771 8.92302 15.9836C9.14193 15.7902 9.25139 15.5 9.25139 15.1131C9.25139 14.7312 9.14193 14.4462 8.92302 14.2578C8.69393 14.0592 8.34521 13.96 7.87684 13.96H6.15866ZM10.5327 13.5476H14.3585V13.96H10.9985V15.9683H14.1752V16.3883H10.9985V18.5876H14.4883V19H10.5327V13.5476ZM17.6787 13.4407C18.3507 13.4407 18.8878 13.6112 19.29 13.9523C19.6616 14.2731 19.8983 14.7262 20.0002 15.3116H19.5267C19.4402 14.8636 19.2467 14.5149 18.9463 14.2654C18.6307 14.0007 18.2082 13.8683 17.6787 13.8683C17.0423 13.8683 16.5358 14.0974 16.1591 14.5556C15.7925 14.9985 15.6093 15.5814 15.6093 16.3043C15.6093 17.012 15.7925 17.5771 16.1591 17.9996C16.5511 18.4578 17.1111 18.6869 17.8391 18.6869C18.1547 18.6869 18.4653 18.6411 18.7707 18.5494C19.0813 18.4527 19.3282 18.3407 19.5114 18.2134V16.6632H17.6482V16.2509H19.9773V18.4349C19.7125 18.6436 19.3994 18.8065 19.038 18.9236C18.6409 19.0458 18.2285 19.1069 17.8009 19.1069C16.9456 19.1069 16.2787 18.8294 15.8002 18.2745C15.3623 17.7705 15.1434 17.1138 15.1434 16.3043C15.1434 15.4949 15.3598 14.828 15.7925 14.3036C16.2558 13.7283 16.8845 13.4407 17.6787 13.4407Z" fill="white"/>
<mask id="mask0_1444_9010" style="mask-type:alpha" maskUnits="userSpaceOnUse" x="12" y="0" width="11" height="10">
<path d="M12.089 9.53674e-07H13.0436H15.2709L21.6345 6.36364L22.9072 7.63636V8.90909V9.54546H12.089V9.53674e-07Z" fill="black"/>
</mask>
<g mask="url(#mask0_1444_9010)">
<g filter="url(#filter0_f_1444_9010)">
<path d="M15.2725 0L22.9088 7.63394H19.0906C18.078 7.63394 17.1068 7.2318 16.3908 6.51597C15.6747 5.80015 15.2725 4.82929 15.2725 3.81697V0Z" fill="#0020C9" fill-opacity="0.8"/>
</g>
</g>
<path d="M15.2725 0L22.9088 7.63394H19.0906C18.078 7.63394 17.1068 7.2318 16.3908 6.51597C15.6747 5.80015 15.2725 4.82929 15.2725 3.81697V0Z" fill="#6692FF"/>
<defs>
<filter id="filter0_f_1444_9010" x="13.3634" y="-1.90909" width="11.4549" height="11.4521" filterUnits="userSpaceOnUse" color-interpolation-filters="sRGB">
<feFlood flood-opacity="0" result="BackgroundImageFix"/>
<feBlend mode="normal" in="SourceGraphic" in2="BackgroundImageFix" result="shape"/>
<feGaussianBlur stdDeviation="0.954545" result="effect1_foregroundBlur_1444_9010"/>
</filter>
<linearGradient id="paint0_linear_1444_9010" x1="11.4545" y1="0" x2="11.4545" y2="28" gradientUnits="userSpaceOnUse">
<stop stop-color="#83BCFF"/>
<stop offset="1" stop-color="#4B69FF"/>
</linearGradient>
</defs>
</svg>
