<svg width="23" height="28" viewBox="0 0 23 28" fill="none" xmlns="http://www.w3.org/2000/svg">
<path d="M3.81818 0H15.2727C16.632 1.34082 21.0745 5.831 22.9091 7.63636V24.1818C22.9091 25.1945 22.5068 26.1656 21.7908 26.8817C21.0747 27.5977 20.1036 28 19.0909 28H3.81818C2.80554 28 1.83437 27.5977 1.11832 26.8817C0.402272 26.1656 0 25.1945 0 24.1818L0 3.81818C0 2.80554 0.402272 1.83437 1.11832 1.11832C1.83437 0.402272 2.80554 0 3.81818 0V0Z" fill="url(#paint0_linear_1444_8994)"/>
<path d="M7.28719 13.6385H7.76065V17.3575C7.76065 17.9327 7.64356 18.3756 7.40937 18.6862C7.13956 19.0273 6.71192 19.1978 6.12647 19.1978C5.63265 19.1978 5.25592 19.0629 4.99628 18.7931C4.71119 18.5131 4.56865 18.1084 4.56865 17.5789V17.3727H5.03447V17.5713C5.03447 18.3705 5.40101 18.7702 6.1341 18.7702C6.54647 18.7702 6.84428 18.6505 7.02756 18.4113C7.20065 18.1771 7.28719 17.8233 7.28719 17.3498V13.6385ZM8.87448 13.6385H11.089C12.3007 13.6385 12.9065 14.1604 12.9065 15.204C12.9065 16.2527 12.2981 16.7771 11.0814 16.7771H9.3403V19.0909H8.87448V13.6385ZM9.3403 14.0509V16.3647H11.0585C11.5218 16.3647 11.8705 16.268 12.1047 16.0745C12.3236 15.8811 12.433 15.5909 12.433 15.204C12.433 14.8222 12.3236 14.5371 12.1047 14.3487C11.8756 14.1502 11.5268 14.0509 11.0585 14.0509H9.3403ZM16.0205 13.5316C16.6925 13.5316 17.2296 13.7022 17.6318 14.0433C18.0034 14.364 18.2401 14.8171 18.342 15.4025H17.8685C17.782 14.9545 17.5885 14.6058 17.2881 14.3564C16.9725 14.0916 16.55 13.9593 16.0205 13.9593C15.3841 13.9593 14.8776 14.1884 14.5009 14.6465C14.1343 15.0895 13.9511 15.6724 13.9511 16.3953C13.9511 17.1029 14.1343 17.668 14.5009 18.0905C14.8929 18.5487 15.4529 18.7778 16.1809 18.7778C16.4965 18.7778 16.8071 18.732 17.1125 18.6404C17.4231 18.5436 17.67 18.4316 17.8532 18.3044V16.7542H15.99V16.3418H18.3191V18.5258C18.0543 18.7345 17.7412 18.8975 17.3798 19.0145C16.9827 19.1367 16.5703 19.1978 16.1427 19.1978C15.2874 19.1978 14.6205 18.9204 14.142 18.3655C13.7041 17.8615 13.4852 17.2047 13.4852 16.3953C13.4852 15.5858 13.7016 14.9189 14.1343 14.3945C14.5976 13.8193 15.2263 13.5316 16.0205 13.5316Z" fill="white"/>
<mask id="mask0_1444_8994" style="mask-type:alpha" maskUnits="userSpaceOnUse" x="12" y="0" width="11" height="10">
<path d="M12.089 9.53674e-07H13.0436H15.2709L21.6345 6.36364L22.9072 7.63636V8.90909V9.54546H12.089V9.53674e-07Z" fill="black"/>
</mask>
<g mask="url(#mask0_1444_8994)">
<g filter="url(#filter0_f_1444_8994)">
<path d="M15.2725 0L22.9088 7.63394H19.0906C18.078 7.63394 17.1068 7.2318 16.3908 6.51597C15.6747 5.80015 15.2725 4.82929 15.2725 3.81697V0Z" fill="#0020C9" fill-opacity="0.8"/>
</g>
</g>
<path d="M15.2725 0L22.9088 7.63394H19.0906C18.078 7.63394 17.1068 7.2318 16.3908 6.51597C15.6747 5.80015 15.2725 4.82929 15.2725 3.81697V0Z" fill="#6692FF"/>
<defs>
<filter id="filter0_f_1444_8994" x="13.3634" y="-1.90909" width="11.4549" height="11.4521" filterUnits="userSpaceOnUse" color-interpolation-filters="sRGB">
<feFlood flood-opacity="0" result="BackgroundImageFix"/>
<feBlend mode="normal" in="SourceGraphic" in2="BackgroundImageFix" result="shape"/>
<feGaussianBlur stdDeviation="0.954545" result="effect1_foregroundBlur_1444_8994"/>
</filter>
<linearGradient id="paint0_linear_1444_8994" x1="11.4545" y1="0" x2="11.4545" y2="28" gradientUnits="userSpaceOnUse">
<stop stop-color="#83BCFF"/>
<stop offset="1" stop-color="#4B69FF"/>
</linearGradient>
</defs>
</svg>
