<svg width="23" height="28" viewBox="0 0 23 28" fill="none" xmlns="http://www.w3.org/2000/svg">
<path d="M3.81818 0H15.2727C16.632 1.34082 21.0745 5.831 22.9091 7.63636V24.1818C22.9091 25.1945 22.5068 26.1656 21.7908 26.8817C21.0747 27.5977 20.1036 28 19.0909 28H3.81818C2.80554 28 1.83437 27.5977 1.11832 26.8817C0.402272 26.1656 0 25.1945 0 24.1818L0 3.81818C0 2.80554 0.402272 1.83437 1.11832 1.11832C1.83437 0.402272 2.80554 0 3.81818 0V0Z" fill="url(#paint0_linear_1417_9277)"/>
<path d="M5.01156 13.6385H7.2261C8.43774 13.6385 9.04356 14.1604 9.04356 15.204C9.04356 16.2527 8.43519 16.7771 7.21847 16.7771H5.47737V19.0909H5.01156V13.6385ZM5.47737 14.0509V16.3647H7.19556C7.65883 16.3647 8.00756 16.268 8.24174 16.0745C8.46065 15.8811 8.5701 15.5909 8.5701 15.204C8.5701 14.8222 8.46065 14.5371 8.24174 14.3487C8.01265 14.1502 7.66392 14.0509 7.19556 14.0509H5.47737ZM9.8514 13.6385H11.791C12.6412 13.6385 13.2801 13.8931 13.7078 14.4022C14.0998 14.8655 14.2958 15.5196 14.2958 16.3647C14.2958 17.1945 14.0769 17.8513 13.639 18.3349C13.1809 18.8389 12.5318 19.0909 11.6918 19.0909H9.8514V13.6385ZM10.3172 14.0509V18.6785H11.623C12.351 18.6785 12.9059 18.4724 13.2878 18.06C13.6543 17.6629 13.8376 17.0978 13.8376 16.3647C13.8376 15.6011 13.6772 15.0335 13.3565 14.6618C13.0103 14.2545 12.4656 14.0509 11.7223 14.0509H10.3172ZM15.1834 13.6385H18.7954V14.0509H15.6492V16.0745H18.6351V16.4869H15.6492V19.0909H15.1834V13.6385Z" fill="white"/>
<mask id="mask0_1417_9277" style="mask-type:alpha" maskUnits="userSpaceOnUse" x="12" y="0" width="11" height="10">
<path d="M12.089 9.53674e-07H13.0436H15.2709L21.6345 6.36364L22.9072 7.63636V8.90909V9.54546H12.089V9.53674e-07Z" fill="black"/>
</mask>
<g mask="url(#mask0_1417_9277)">
<g filter="url(#filter0_f_1417_9277)">
<path d="M15.2725 0L22.9088 7.63394H19.0906C18.078 7.63394 17.1068 7.2318 16.3908 6.51597C15.6747 5.80015 15.2725 4.82929 15.2725 3.81697V0Z" fill="#0020C9" fill-opacity="0.8"/>
</g>
</g>
<path d="M15.2725 0L22.9088 7.63394H19.0906C18.078 7.63394 17.1068 7.2318 16.3908 6.51597C15.6747 5.80015 15.2725 4.82929 15.2725 3.81697V0Z" fill="#6692FF"/>
<defs>
<filter id="filter0_f_1417_9277" x="13.3634" y="-1.90909" width="11.4549" height="11.4521" filterUnits="userSpaceOnUse" color-interpolation-filters="sRGB">
<feFlood flood-opacity="0" result="BackgroundImageFix"/>
<feBlend mode="normal" in="SourceGraphic" in2="BackgroundImageFix" result="shape"/>
<feGaussianBlur stdDeviation="0.954545" result="effect1_foregroundBlur_1417_9277"/>
</filter>
<linearGradient id="paint0_linear_1417_9277" x1="11.4545" y1="0" x2="11.4545" y2="28" gradientUnits="userSpaceOnUse">
<stop stop-color="#83BCFF"/>
<stop offset="1" stop-color="#4B69FF"/>
</linearGradient>
</defs>
</svg>
