<svg width="23" height="28" viewBox="0 0 23 28" fill="none" xmlns="http://www.w3.org/2000/svg">
<path d="M3.81818 0H15.2727C16.632 1.34082 21.0745 5.831 22.9091 7.63636V24.1818C22.9091 25.1945 22.5068 26.1656 21.7908 26.8817C21.0747 27.5977 20.1036 28 19.0909 28H3.81818C2.80554 28 1.83437 27.5977 1.11832 26.8817C0.402272 26.1656 0 25.1945 0 24.1818L0 3.81818C0 2.80554 0.402272 1.83437 1.11832 1.11832C1.83437 0.402272 2.80554 0 3.81818 0V0Z" fill="url(#paint0_linear_1444_9002)"/>
<path d="M5.01156 13.6385H7.2261C8.43774 13.6385 9.04356 14.1604 9.04356 15.204C9.04356 16.2527 8.43519 16.7771 7.21847 16.7771H5.47737V19.0909H5.01156V13.6385ZM5.47737 14.0509V16.3647H7.19556C7.65883 16.3647 8.00756 16.268 8.24174 16.0745C8.46065 15.8811 8.5701 15.5909 8.5701 15.204C8.5701 14.8222 8.46065 14.5371 8.24174 14.3487C8.01265 14.1502 7.66392 14.0509 7.19556 14.0509H5.47737ZM9.8514 13.6385H10.3783L13.6772 18.3655H13.7001V13.6385H14.1736V19.0909H13.6543L10.3401 14.3258H10.3172V19.0909H9.8514V13.6385ZM17.594 13.5316C18.266 13.5316 18.8031 13.7022 19.2053 14.0433C19.5769 14.364 19.8137 14.8171 19.9155 15.4025H19.442C19.3555 14.9545 19.162 14.6058 18.8617 14.3564C18.546 14.0916 18.1235 13.9593 17.594 13.9593C16.9577 13.9593 16.4511 14.1884 16.0744 14.6465C15.7078 15.0895 15.5246 15.6724 15.5246 16.3953C15.5246 17.1029 15.7078 17.668 16.0744 18.0905C16.4664 18.5487 17.0264 18.7778 17.7544 18.7778C18.07 18.7778 18.3806 18.732 18.686 18.6404C18.9966 18.5436 19.2435 18.4316 19.4267 18.3044V16.7542H17.5635V16.3418H19.8926V18.5258C19.6278 18.7345 19.3147 18.8975 18.9533 19.0145C18.5562 19.1367 18.1438 19.1978 17.7162 19.1978C16.8609 19.1978 16.194 18.9204 15.7155 18.3655C15.2777 17.8615 15.0587 17.2047 15.0587 16.3953C15.0587 15.5858 15.2751 14.9189 15.7078 14.3945C16.1711 13.8193 16.7998 13.5316 17.594 13.5316Z" fill="white"/>
<mask id="mask0_1444_9002" style="mask-type:alpha" maskUnits="userSpaceOnUse" x="12" y="0" width="11" height="10">
<path d="M12.089 9.53674e-07H13.0436H15.2709L21.6345 6.36364L22.9072 7.63636V8.90909V9.54546H12.089V9.53674e-07Z" fill="black"/>
</mask>
<g mask="url(#mask0_1444_9002)">
<g filter="url(#filter0_f_1444_9002)">
<path d="M15.2725 0L22.9088 7.63394H19.0906C18.078 7.63394 17.1068 7.2318 16.3908 6.51597C15.6747 5.80015 15.2725 4.82929 15.2725 3.81697V0Z" fill="#0020C9" fill-opacity="0.8"/>
</g>
</g>
<path d="M15.2725 0L22.9088 7.63394H19.0906C18.078 7.63394 17.1068 7.2318 16.3908 6.51597C15.6747 5.80015 15.2725 4.82929 15.2725 3.81697V0Z" fill="#6692FF"/>
<defs>
<filter id="filter0_f_1444_9002" x="13.3634" y="-1.90909" width="11.4549" height="11.4521" filterUnits="userSpaceOnUse" color-interpolation-filters="sRGB">
<feFlood flood-opacity="0" result="BackgroundImageFix"/>
<feBlend mode="normal" in="SourceGraphic" in2="BackgroundImageFix" result="shape"/>
<feGaussianBlur stdDeviation="0.954545" result="effect1_foregroundBlur_1444_9002"/>
</filter>
<linearGradient id="paint0_linear_1444_9002" x1="11.4545" y1="0" x2="11.4545" y2="28" gradientUnits="userSpaceOnUse">
<stop stop-color="#83BCFF"/>
<stop offset="1" stop-color="#4B69FF"/>
</linearGradient>
</defs>
</svg>
